<svg width="5" height="17" viewBox="0 0 5 17" fill="none" xmlns="http://www.w3.org/2000/svg">
<path d="M2.37516e-05 2.1996C2.37018e-05 3.33997 0.924563 4.26444 2.06486 4.26444C3.20516 4.26444 4.1297 3.33997 4.1297 2.1996C4.1297 1.05924 3.20516 0.134766 2.06486 0.134766C0.924563 0.134765 2.38014e-05 1.05924 2.37516e-05 2.1996Z" fill="black"/>
<path d="M2.34808e-05 8.39412C2.3431e-05 9.53448 0.924563 10.459 2.06486 10.459C3.20516 10.459 4.1297 9.53448 4.1297 8.39412C4.1297 7.25376 3.20516 6.32928 2.06486 6.32928C0.924563 6.32928 2.35307e-05 7.25376 2.34808e-05 8.39412Z" fill="black"/>
<path d="M2.06486 16.6535C0.924562 16.6535 2.31602e-05 15.729 2.32101e-05 14.5886C2.32599e-05 13.4483 0.924563 12.5238 2.06486 12.5238C3.20516 12.5238 4.1297 13.4483 4.1297 14.5886C4.1297 15.729 3.20516 16.6535 2.06486 16.6535Z" fill="black"/>
</svg>
